<svg width="108" height="108" viewBox="0 0 108 108" fill="none" xmlns="http://www.w3.org/2000/svg">
<g clip-path="url(#clip0_950_7732)">
<rect width="108" height="108" rx="54" fill="#D1D5DB"/>
<circle cx="54" cy="37" r="17" fill="white"/>
<rect x="18" y="83.317" width="71" height="38.6829" fill="white"/>
<path d="M89 83.3171C89 77.3982 85.2598 71.7218 78.6023 67.5365C71.9448 63.3513 62.9152 61 53.5 61C44.0848 61 35.0553 63.3513 28.3977 67.5365C21.7402 71.7218 18 77.3982 18 83.3171L53.5 83.3171H89Z" fill="white"/>
<path d="M108 54C108 61.0914 106.603 68.1133 103.889 74.6649C101.176 81.2165 97.1981 87.1694 92.1838 92.1838C87.1694 97.1981 81.2165 101.176 74.6649 103.889C68.1133 106.603 61.0914 108 54 108C46.9086 108 39.8867 106.603 33.3351 103.889C26.7835 101.176 20.8306 97.1981 15.8162 92.1838C10.8019 87.1694 6.82426 81.2165 4.1105 74.6649C1.39675 68.1133 -6.19948e-07 61.0914 0 54L8.1 54C8.1 60.0277 9.28724 65.9963 11.5939 71.5652C13.9006 77.134 17.2816 82.194 21.5438 86.4562C25.806 90.7184 30.866 94.0994 36.4348 96.4061C42.0037 98.7128 47.9723 99.9 54 99.9C60.0277 99.9 65.9963 98.7128 71.5652 96.4061C77.134 94.0994 82.194 90.7184 86.4562 86.4562C90.7184 82.194 94.0994 77.134 96.4061 71.5652C98.7128 65.9963 99.9 60.0277 99.9 54H108Z" fill="#D1D5DB"/>
</g>
<defs>
<clipPath id="clip0_950_7732">
<rect width="108" height="108" rx="54" fill="white"/>
</clipPath>
</defs>
</svg>
